PathFileType	4	(X/Y/Z)	c:/Users/goper/Files/vsCode/490R/osim_files/A01/A01_Slow_05.trc
DataRate	CameraRate	NumFrames	NumMarkers	Units                	OrigDataRate	OrigDataStartFrame	OrigNumFrames
120.00	120.00	6	36	mm	120.0	741	1184
                Frame#	Time	Mobility_markerset:LPSIS			Mobility_markerset:LASIS			Mobility_markerset:LTH1			Mobility_markerset:LTH2			Mobility_markerset:LTH3			Mobility_markerset:LTH4			Mobility_markerset:LLFE			Mobility_markerset:LMFE			Mobility_markerset:LSH1			Mobility_markerset:LSH2			Mobility_markerset:LSH3			Mobility_markerset:LSH4			Mobility_markerset:LLMAL			Mobility_markerset:LMMAL			Mobility_markerset:LCAL			Mobility_markerset:LMTP5			Mobility_markerset:LTOE			Mobility_markerset:LMTP1			Mobility_markerset:RPSIS			Mobility_markerset:RASIS			Mobility_markerset:RTH1			Mobility_markerset:RTH2			Mobility_markerset:RTH3			Mobility_markerset:RTH4			Mobility_markerset:RLFE			Mobility_markerset:RMFE			Mobility_markerset:RSH1			Mobility_markerset:RSH2			Mobility_markerset:RSH3			Mobility_markerset:RSH4			Mobility_markerset:RLMAL			Mobility_markerset:RMMAL			Mobility_markerset:RCAL			Mobility_markerset:RMTP1			Mobility_markerset:RTOE			Mobility_markerset:RMTP5		
		X1	Y1	Z1	X2	Y2	Z2	X3	Y3	Z3	X4	Y4	Z4	X5	Y5	Z5	X6	Y6	Z6	X7	Y7	Z7	X8	Y8	Z8	X9	Y9	Z9	X10	Y10	Z10	X11	Y11	Z11	X12	Y12	Z12	X13	Y13	Z13	X14	Y14	Z14	X15	Y15	Z15	X16	Y16	Z16	X17	Y17	Z17	X18	Y18	Z18	X19	Y19	Z19	X20	Y20	Z20	X21	Y21	Z21	X22	Y22	Z22	X23	Y23	Z23	X24	Y24	Z24	X25	Y25	Z25	X26	Y26	Z26	X27	Y27	Z27	X28	Y28	Z28	X29	Y29	Z29	X30	Y30	Z30	X31	Y31	Z31	X32	Y32	Z32	X33	Y33	Z33	X34	Y34	Z34	X35	Y35	Z35	X36	Y36	Z36

741	6.16667	-1683.11584	1016.33960	361.36905	-1931.07812	996.31458	416.26645	-1930.03381	679.26050	477.74173	-1952.87988	638.25745	466.74539	-1982.57690	705.92438	467.15228	-1997.03345	663.51849	454.32782	-2015.80090	542.41705	422.32556	-2017.70667	546.92615	284.23892	-2018.21936	374.28464	416.97488	-2031.70386	328.64676	422.35522	-2079.42407	383.95825	409.64276	-2081.46460	337.94138	412.68845	-2104.34131	92.09349	403.58475	-2087.77319	88.13708	324.63980	-2029.04346	49.34937	371.14075	-2252.17993	71.03182	412.04132	-2268.45337	98.27063	342.28986	-2243.57837	78.10093	311.31549	-1675.31323	1019.99109	260.62546	-1894.07739	962.67004	152.76704	-1687.75586	664.76581	109.27335	-1688.64490	621.91217	116.38400	-1750.02759	657.72443	106.80714	-1740.68005	616.05591	113.16039	-1695.99915	474.33917	157.67334	-1711.92163	487.24109	276.44778	-1518.60083	341.76266	154.90553	-1498.43005	300.87338	155.98099	-1570.92407	309.46121	153.00964	-1544.77002	273.18704	154.45715	-1429.46277	135.75949	188.79378	-1459.35425	142.36082	274.14148	-1368.10864	126.02111	239.85464	-1553.10095	41.72102	273.10132	-1586.06287	50.79091	226.94220	-1529.46045	36.91783	161.11781
742	6.17500	-1694.42969	1016.84393	361.97540	-1942.53687	996.27789	417.21381	-1937.48523	678.39575	478.72360	-1959.23975	637.82202	466.29828	-1990.51184	704.58850	468.88809	-2004.38904	662.29602	455.98193	-2024.07678	542.21790	423.52921	-2025.89038	546.93182	285.26312	-2023.81775	374.07684	417.77731	-2035.65918	327.35553	422.19946	-2085.25562	382.76904	410.47101	-2086.49878	336.52048	413.48087	-2105.65942	91.37355	403.55270	-2089.18481	87.66741	325.02014	-2029.62219	49.60090	371.17719	-2253.33545	67.74392	412.08798	-2270.23291	94.64625	342.52621	-2245.04150	75.04377	311.36560	-1686.88879	1019.73956	261.44714	-1905.56201	961.79291	153.99210	-1699.00061	664.19653	110.14689	-1699.76672	621.42316	117.12142	-1761.16626	657.15936	107.54332	-1751.67261	615.53479	113.67632	-1706.62830	473.65945	157.68054	-1722.89551	486.08185	276.79944	-1526.60840	344.33807	154.77776	-1505.26624	303.94562	155.65900	-1578.36707	311.03561	152.78249	-1551.37280	275.22592	154.14087	-1433.28845	139.89479	188.11737	-1463.52466	145.84561	273.43771	-1371.96130	132.22159	239.39296	-1553.63379	41.73006	273.00113	-1586.14380	51.16897	227.04686	-1530.24353	37.30707	161.23068
743	6.18333	-1706.43042	1017.12817	363.03156	-1953.97974	996.44763	418.22842	-1944.81104	677.88214	478.46622	-1966.91138	636.96429	467.49936	-1998.51587	702.99469	472.12888	-2012.42493	661.17664	457.74002	-2032.15222	542.03595	424.70755	-2034.21594	547.06757	286.49310	-2029.53845	373.92230	418.62741	-2041.68164	327.85553	423.80191	-2091.10645	381.77362	411.38525	-2092.12988	335.77304	413.96716	-2105.57568	90.53041	404.41962	-2090.62964	87.16854	325.33551	-2030.25769	49.88687	371.20224	-2254.18066	64.74599	412.40985	-2271.29468	91.65076	342.78192	-2246.07104	72.52353	311.45880	-1698.33289	1019.63214	262.16348	-1917.21436	961.17920	155.26874	-1710.60510	663.72980	110.99865	-1711.34888	620.90558	117.81420	-1772.56519	656.71155	108.02021	-1763.60901	614.87341	114.46263	-1717.83264	473.01968	157.44304	-1734.53369	485.41199	277.16290	-1535.41333	346.92960	154.60713	-1513.68811	306.58328	155.44910	-1586.33740	312.31592	152.79987	-1558.64587	277.43127	153.75398	-1437.76721	144.42197	187.51865	-1468.26880	149.51662	272.67615	-1376.51807	138.90424	239.05693	-1554.11694	41.64734	272.84265	-1586.23999	51.47760	227.17160	-1531.06311	37.68704	161.23242
744	6.19167	-1717.81409	1017.41919	363.90887	-1965.28284	996.93463	419.26364	-1952.83228	677.40405	479.63275	-1974.97192	636.42383	468.86536	-2007.05835	702.20123	474.19479	-2020.57800	660.53607	459.46011	-2040.09485	541.89606	426.02631	-2042.30737	547.26434	287.69656	-2035.13171	373.84134	419.51309	-2046.74402	327.67889	424.67160	-2096.69385	380.84424	412.34030	-2096.82471	334.79532	415.14639	-2107.32446	90.56361	404.61774	-2092.24365	86.74584	325.65927	-2030.97681	50.24544	371.25476	-2255.25195	61.48908	412.62665	-2272.60474	88.09805	343.27545	-2247.13501	69.66366	311.81799	-1709.76221	1019.66974	262.73386	-1929.10107	960.90735	156.85825	-1722.59900	663.33832	111.77727	-1723.47253	620.49567	118.33398	-1784.88611	656.29541	108.95551	-1775.68994	614.42920	114.93175	-1730.25391	472.41934	157.30309	-1746.90332	484.35312	277.34860	-1544.82996	349.82285	154.39737	-1522.60986	311.09818	155.12914	-1594.80432	314.26849	152.32370	-1566.62964	279.89062	153.17296	-1442.86206	149.19382	186.69385	-1473.69177	153.54645	271.70422	-1381.91956	146.15794	238.59232	-1554.71265	41.72270	272.77026	-1585.60413	51.24152	227.45392	-1531.95520	38.04840	161.23221
745	6.20000	-1728.65710	1018.33795	364.12650	-1976.53320	997.61530	420.37888	-1961.27258	677.41138	481.28098	-1983.26050	636.36853	470.39398	-2015.39417	702.19849	475.54224	-2028.98315	660.23425	461.15640	-2047.91809	541.72748	427.42920	-2050.41504	547.46851	289.06714	-2040.48962	373.90103	420.37793	-2050.44092	326.62164	424.63287	-2102.33472	379.98639	413.45566	-2102.50098	333.83200	415.78577	-2110.07520	90.30994	403.89224	-2093.58667	86.43655	325.98291	-2031.61145	50.65792	371.28351	-2256.30005	58.10440	412.77350	-2274.38208	84.53104	343.62390	-2248.53687	66.63872	311.97861	-1721.03577	1019.80975	263.18796	-1940.91064	960.95746	158.61897	-1735.14038	662.91730	112.47463	-1736.14929	620.13208	118.73059	-1797.24170	656.23694	109.34592	-1788.38477	614.20288	115.20171	-1743.10754	471.86234	156.90982	-1760.61621	482.68442	276.88809	-1555.10901	352.99500	154.09770	-1532.00391	314.72858	154.90036	-1604.10840	316.39142	151.60794	-1575.20789	282.62616	152.48409	-1448.78174	154.43501	185.88974	-1480.09229	157.66733	270.70847	-1388.25342	153.90161	238.22624	-1555.36377	41.90915	272.78903	-1585.78271	51.38881	227.47205	-1533.15088	38.56261	161.15570
746	6.20833	-1739.54980	1019.31091	364.69202	-1987.68237	998.68481	421.62784	-1970.07178	678.05341	482.95212	-1991.77710	636.80383	471.99017	-2024.22107	702.51990	477.29327	-2037.63745	660.40009	462.88971	-2055.67896	541.69141	428.85522	-2058.50000	547.79877	290.51862	-2045.94104	373.94931	421.40228	-2056.31055	327.46878	426.41580	-2107.74414	379.22684	414.43365	-2106.79932	333.30957	416.69394	-2112.25195	90.23577	403.55664	-2094.86450	86.23098	326.28323	-2032.09009	51.04621	371.33072	-2256.92505	55.58307	412.91455	-2275.62720	81.72392	343.97998	-2249.63477	64.33839	312.23251	-1732.38660	1019.82825	263.59897	-1952.50891	961.23151	160.54239	-1748.25024	662.45898	113.16173	-1749.21899	619.82739	118.94816	-1810.54761	656.04236	109.81145	-1801.73560	613.98645	115.39761	-1756.81030	471.45758	156.45905	-1775.02209	482.34097	278.12164	-1565.98779	356.37210	153.96603	-1542.05225	318.70981	154.69893	-1614.16907	318.67816	150.91919	-1584.59692	285.62039	151.72118	-1455.69019	159.97498	185.15585	-1487.15076	162.02245	269.71393	-1395.61304	162.40289	237.90573	-1556.48059	42.62050	272.96661	-1586.47363	51.26116	227.37373	-1534.40869	39.39934	161.07578
